<?xml version="1.0" encoding="UTF-8"?>
<!DOCTYPE svg PUBLIC "-//W3C//DTD SVG 1.1//EN" "http://www.w3.org/Graphics/SVG/1.1/DTD/svg11.dtd">
<svg version="1.2" width="280mm" height="100mm" viewBox="0 0 28000 10000" preserveAspectRatio="xMidYMid" fill-rule="evenodd" stroke-width="28.222" stroke-linejoin="round" xmlns="http://www.w3.org/2000/svg" xmlns:ooo="http://xml.openoffice.org/svg/export" xmlns:xlink="http://www.w3.org/1999/xlink" xmlns:presentation="http://sun.com/xmlns/staroffice/presentation" xmlns:smil="http://www.w3.org/2001/SMIL20/" xmlns:anim="urn:oasis:names:tc:opendocument:xmlns:animation:1.0" xmlns:svg="urn:oasis:names:tc:opendocument:xmlns:svg-compatible:1.0" xml:space="preserve">
 <defs class="ClipPathGroup">
  <clipPath id="presentation_clip_path" clipPathUnits="userSpaceOnUse">
   <rect x="0" y="0" width="28000" height="10000"/>
  </clipPath>
  <clipPath id="presentation_clip_path_shrink" clipPathUnits="userSpaceOnUse">
   <rect x="28" y="10" width="27944" height="9980"/>
  </clipPath>
 </defs>
 <defs class="TextShapeIndex">
  <g ooo:slide="id1" ooo:id-list="id3 id4 id5 id6 id7 id8 id9 id10 id11 id12 id13 id14 id15 id16 id17 id18 id19 id20 id21 id22 id23 id24 id25 id26 id27 id28 id29 id30"/>
 </defs>
 <defs class="EmbeddedBulletChars">
  <g id="bullet-char-template-57356" transform="scale(0.00048828125,-0.00048828125)">
   <path d="M 580,1141 L 1163,571 580,0 -4,571 580,1141 Z"/>
  </g>
  <g id="bullet-char-template-57354" transform="scale(0.00048828125,-0.00048828125)">
   <path d="M 8,1128 L 1137,1128 1137,0 8,0 8,1128 Z"/>
  </g>
  <g id="bullet-char-template-10146" transform="scale(0.00048828125,-0.00048828125)">
   <path d="M 174,0 L 602,739 174,1481 1456,739 174,0 Z M 1358,739 L 309,1346 659,739 1358,739 Z"/>
  </g>
  <g id="bullet-char-template-10132" transform="scale(0.00048828125,-0.00048828125)">
   <path d="M 2015,739 L 1276,0 717,0 1260,543 174,543 174,936 1260,936 717,1481 1274,1481 2015,739 Z"/>
  </g>
  <g id="bullet-char-template-10007" transform="scale(0.00048828125,-0.00048828125)">
   <path d="M 0,-2 C -7,14 -16,27 -25,37 L 356,567 C 262,823 215,952 215,954 215,979 228,992 255,992 264,992 276,990 289,987 310,991 331,999 354,1012 L 381,999 492,748 772,1049 836,1024 860,1049 C 881,1039 901,1025 922,1006 886,937 835,863 770,784 769,783 710,716 594,584 L 774,223 C 774,196 753,168 711,139 L 727,119 C 717,90 699,76 672,76 641,76 570,178 457,381 L 164,-76 C 142,-110 111,-127 72,-127 30,-127 9,-110 8,-76 1,-67 -2,-52 -2,-32 -2,-23 -1,-13 0,-2 Z"/>
  </g>
  <g id="bullet-char-template-10004" transform="scale(0.00048828125,-0.00048828125)">
   <path d="M 285,-33 C 182,-33 111,30 74,156 52,228 41,333 41,471 41,549 55,616 82,672 116,743 169,778 240,778 293,778 328,747 346,684 L 369,508 C 377,444 397,411 428,410 L 1163,1116 C 1174,1127 1196,1133 1229,1133 1271,1133 1292,1118 1292,1087 L 1292,965 C 1292,929 1282,901 1262,881 L 442,47 C 390,-6 338,-33 285,-33 Z"/>
  </g>
  <g id="bullet-char-template-9679" transform="scale(0.00048828125,-0.00048828125)">
   <path d="M 813,0 C 632,0 489,54 383,161 276,268 223,411 223,592 223,773 276,916 383,1023 489,1130 632,1184 813,1184 992,1184 1136,1130 1245,1023 1353,916 1407,772 1407,592 1407,412 1353,268 1245,161 1136,54 992,0 813,0 Z"/>
  </g>
  <g id="bullet-char-template-8226" transform="scale(0.00048828125,-0.00048828125)">
   <path d="M 346,457 C 273,457 209,483 155,535 101,586 74,649 74,723 74,796 101,859 155,911 209,963 273,989 346,989 419,989 480,963 531,910 582,859 608,796 608,723 608,648 583,586 532,535 482,483 420,457 346,457 Z"/>
  </g>
  <g id="bullet-char-template-8211" transform="scale(0.00048828125,-0.00048828125)">
   <path d="M -4,459 L 1135,459 1135,606 -4,606 -4,459 Z"/>
  </g>
  <g id="bullet-char-template-61548" transform="scale(0.00048828125,-0.00048828125)">
   <path d="M 173,740 C 173,903 231,1043 346,1159 462,1274 601,1332 765,1332 928,1332 1067,1274 1183,1159 1299,1043 1357,903 1357,740 1357,577 1299,437 1183,322 1067,206 928,148 765,148 601,148 462,206 346,322 231,437 173,577 173,740 Z"/>
  </g>
 </defs>
 <g>
  <g id="id2" class="Master_Slide">
   <g id="bg-id2" class="Background"/>
   <g id="bo-id2" class="BackgroundObjects"/>
  </g>
 </g>
 <g class="SlideGroup">
  <g>
   <g id="container-id1">
    <g id="id1" class="Slide" clip-path="url(#presentation_clip_path)">
     <g class="Page">
      <g class="Graphic">
       <g id="id3">
        <rect class="BoundingBox" stroke="none" fill="none" x="1809" y="1609" width="6542" height="6542"/>
        <defs>
         <clipPath id="clip_path_1" clipPathUnits="userSpaceOnUse">
          <path d="M 1809,1609 L 8350,1609 8350,8150 1809,8150 1809,1609 Z"/>
         </clipPath>
        </defs>
        <g clip-path="url(#clip_path_1)">
         <path fill="rgb(183,138,45)" stroke="none" d="M 3798,6778 L 3268,7598 C 3786,7947 4410,8150 5080,8150 5770,8150 6411,7934 6939,7566 L 6435,6818 3798,6778 3798,6778 3798,6778 Z"/>
         <path fill="rgb(43,43,136)" stroke="none" d="M 5977,6952 L 3809,6921 3376,7571 C 3869,7887 4455,8070 5082,8070 5725,8070 6325,7877 6826,7546 L 6404,6901 5977,6952 5977,6952 5977,6952 Z"/>
         <path fill="rgb(183,138,45)" stroke="none" d="M 7512,5013 L 8347,5036 C 8349,4989 8350,4941 8350,4894 8350,3082 6883,1609 5080,1609 3276,1609 1809,3082 1809,4894 1809,4954 1811,5013 1814,5072 L 2667,5038 7512,5013 7512,5013 7512,5013 Z"/>
         <path fill="rgb(43,43,136)" stroke="none" d="M 1895,4885 C 1895,4913 1895,4942 1896,4972 2019,4966 2407,4950 2529,4946 2529,4925 7625,4907 7625,4918 7747,4922 8136,4933 8259,4936 8259,4919 8260,4901 8260,4885 8260,3122 6832,1689 5077,1689 3322,1689 1895,3122 1895,4885 L 1895,4885 1895,4885 Z"/>
         <path fill="rgb(183,138,45)" stroke="none" d="M 2619,4894 C 2619,6255 3723,7363 5080,7363 6436,7363 7540,6255 7540,4894 7540,3532 6436,2425 5080,2425 3723,2425 2619,3532 2619,4894 L 2619,4894 2619,4894 Z"/>
         <path fill="rgb(43,43,136)" stroke="none" d="M 7277,5059 L 7280,4641 7113,4645 C 7096,4510 7067,4380 7026,4254 L 7174,4193 7017,3806 6858,3877 C 6792,3761 6715,3652 6629,3552 L 6748,3433 6456,3137 6330,3269 C 6227,3189 6116,3118 5998,3059 L 6066,2896 5683,2735 5615,2911 C 5491,2878 5363,2855 5231,2845 L 5231,2663 4816,2662 4821,2856 C 4691,2873 4564,2902 4442,2942 L 4372,2770 3988,2930 4067,3109 C 3954,3173 3848,3249 3749,3333 L 3619,3202 3325,3497 3466,3631 C 3386,3733 3315,3843 3256,3960 L 3086,3886 2922,4270 3106,4344 C 3074,4460 3052,4579 3041,4702 L 2862,4699 2857,5117 3043,5115 C 3058,5247 3084,5376 3123,5500 L 2959,5566 3113,5954 3284,5880 C 3347,5996 3421,6105 3505,6205 L 3379,6329 3669,6628 3798,6494 C 3899,6576 4009,6649 4125,6711 L 4057,6872 4439,7036 4506,6866 C 4630,6902 4759,6927 4892,6939 L 4890,7111 5305,7115 5302,6936 C 5435,6921 5564,6894 5688,6855 L 5750,7010 6135,6853 6066,6693 C 6182,6629 6292,6553 6393,6468 L 6507,6584 6802,6291 6680,6173 C 6763,6069 6836,5957 6898,5838 L 7043,5899 7204,5514 7050,5454 C 7086,5327 7110,5194 7121,5058 L 7277,5059 7277,5059 7277,5059 Z"/>
         <path fill="rgb(255,255,255)" stroke="none" d="M 6968,4894 C 6968,5940 6122,6787 5080,6787 4037,6787 3191,5940 3191,4894 3191,3848 4037,3001 5080,3001 6122,3001 6968,3848 6968,4894 L 6968,4894 6968,4894 Z"/>
         <path fill="none" stroke="rgb(255,255,255)" stroke-width="27" stroke-linejoin="miter" d="M 3798,7715 C 3782,7650 3760,7587 3745,7522 3739,7498 3729,7475 3706,7460 3695,7453 3685,7448 3672,7454 3628,7473 3659,7521 3680,7544 3711,7578 3751,7590 3796,7584 3824,7581 3854,7566 3854,7533 3853,7493 3812,7467 3810,7430 3807,7391 3842,7396 3870,7406 L 4016,7469"/>
         <path fill="none" stroke="rgb(255,255,255)" stroke-width="27" stroke-linejoin="miter" d="M 3937,7685 L 4038,7393"/>
         <path fill="none" stroke="rgb(255,255,255)" stroke-width="27" stroke-linejoin="miter" d="M 4038,7727 L 4138,7435"/>
         <path fill="none" stroke="rgb(255,255,255)" stroke-width="27" stroke-linejoin="miter" d="M 3765,7249 C 3765,7249 4000,7414 4458,7520"/>
         <path fill="none" stroke="rgb(255,255,255)" stroke-width="27" stroke-linejoin="miter" d="M 4315,7816 L 4390,7507"/>
         <path fill="none" stroke="rgb(255,255,255)" stroke-width="27" stroke-linejoin="miter" d="M 4353,7655 C 4353,7655 4239,7617 4239,7617 4222,7612 4199,7611 4183,7619 4164,7628 4158,7659 4173,7675 4196,7699 4228,7650 4210,7642"/>
         <path fill="none" stroke="rgb(255,255,255)" stroke-width="27" stroke-linejoin="miter" d="M 4600,7583 L 4588,7744 C 4588,7744 4605,7808 4701,7808 L 4718,7808"/>
         <path fill="none" stroke="rgb(255,255,255)" stroke-width="27" stroke-linejoin="miter" d="M 4730,7592 L 4718,7892"/>
         <path fill="none" stroke="rgb(255,255,255)" stroke-width="27" stroke-linejoin="miter" d="M 4550,7545 C 4550,7545 5008,7634 5364,7579"/>
         <path fill="none" stroke="rgb(255,255,255)" stroke-width="27" stroke-linejoin="miter" d="M 4894,7596 C 4922,7636 4968,7675 4975,7725 4984,7792 4922,7803 4869,7795"/>
         <path fill="none" stroke="rgb(255,255,255)" stroke-width="27" stroke-linejoin="miter" d="M 4823,7719 C 4823,7719 4869,7841 4991,7934"/>
         <path fill="none" stroke="rgb(255,255,255)" stroke-width="27" stroke-linejoin="miter" d="M 5133,7605 C 5133,7651 5142,7704 5142,7749 5142,7772 5145,7823 5120,7836 5095,7848 5068,7822 5063,7799 5048,7731 5251,7756 5293,7757"/>
         <path fill="none" stroke="rgb(255,255,255)" stroke-width="27" stroke-linejoin="miter" d="M 5272,7600 L 5297,7909"/>
         <path fill="none" stroke="rgb(255,255,255)" stroke-width="27" stroke-linejoin="miter" d="M 5713,7537 L 5780,7829"/>
         <path fill="none" stroke="rgb(255,255,255)" stroke-width="27" stroke-linejoin="miter" d="M 5730,7655 L 5621,7668 C 5621,7668 5502,7674 5511,7744 5511,7744 5507,7808 5600,7795 L 5759,7774"/>
         <path fill="none" stroke="rgb(255,255,255)" stroke-width="27" stroke-linejoin="miter" d="M 5579,7681 L 5679,7778"/>
         <path fill="none" stroke="rgb(255,255,255)" stroke-width="27" stroke-linejoin="miter" d="M 5990,7808 C 5990,7808 5856,7795 5860,7697 5860,7697 5864,7596 5952,7608 5952,7608 5999,7617 5982,7672 5982,7672 6070,7482 6162,7571 6162,7571 6208,7622 6133,7744"/>
         <path fill="none" stroke="rgb(255,255,255)" stroke-width="27" stroke-linejoin="miter" d="M 5461,7575 C 5461,7575 5961,7533 6435,7236"/>
         <path fill="none" stroke="rgb(255,255,255)" stroke-width="27" stroke-linejoin="miter" d="M 6221,7368 C 6221,7368 6304,7519 6305,7520 6322,7551 6286,7597 6253,7582 6212,7564 6237,7521 6263,7503 L 6440,7427"/>
         <path fill="none" stroke="rgb(255,255,255)" stroke-width="27" stroke-linejoin="miter" d="M 6356,7291 L 6498,7562"/>
         <path fill="none" stroke="rgb(255,255,255)" stroke-width="27" stroke-linejoin="miter" d="M 6007,7452 L 6045,7571"/>
         <path fill="rgb(255,255,255)" stroke="none" d="M 4435,7415 C 4435,7429 4424,7440 4411,7440 4397,7440 4386,7429 4386,7415 4386,7401 4397,7390 4411,7390 4424,7390 4435,7401 4435,7415 L 4435,7415 4435,7415 Z"/>
         <path fill="rgb(255,255,255)" stroke="none" d="M 5292,7511 C 5292,7525 5281,7535 5268,7535 5254,7535 5243,7525 5243,7511 5243,7497 5254,7486 5268,7486 5281,7486 5292,7497 5292,7511 L 5292,7511 5292,7511 Z"/>
         <path fill="rgb(43,43,136)" stroke="none" d="M 4363,4850 C 4363,4901 4323,4941 4273,4941 4224,4941 4183,4901 4183,4850 4183,4801 4224,4760 4273,4760 4323,4760 4363,4801 4363,4850 L 4363,4850 4363,4850 Z"/>
         <path fill="rgb(92,202,232)" stroke="none" d="M 3280,4896 C 3280,5891 4091,6694 5077,6702 L 4014,3437 C 3569,3766 3280,4297 3280,4896 L 3280,4896 3280,4896 Z"/>
         <path fill="rgb(255,226,117)" stroke="none" d="M 6085,3397 L 5107,6705 C 6086,6689 6874,5885 6874,4896 6874,4273 6561,3723 6085,3397 L 6085,3397 6085,3397 Z"/>
         <path fill="rgb(207,32,39)" stroke="none" d="M 5077,3086 C 4716,3086 4380,3193 4098,3378 L 5093,6447 6016,3353 C 5743,3184 5421,3086 5077,3086 L 5077,3086 5077,3086 Z"/>
         <path fill="rgb(183,138,45)" stroke="none" d="M 5061,4809 L 4862,4425 5052,4225 5259,4433 5061,4809 5061,4809 Z"/>
         <path fill="none" stroke="rgb(255,255,255)" stroke-width="21" stroke-linejoin="miter" d="M 5061,4809 L 4862,4425 5052,4225 5259,4433 5061,4809 5061,4809 Z"/>
         <path fill="rgb(183,138,45)" stroke="none" d="M 4746,4417 L 4464,4225 4762,4025 5061,4225 4746,4417 4746,4417 Z"/>
         <path fill="none" stroke="rgb(255,255,255)" stroke-width="21" stroke-linejoin="miter" d="M 4746,4417 L 4464,4225 4762,4025 5061,4225 4746,4417 4746,4417 Z"/>
         <path fill="rgb(183,138,45)" stroke="none" d="M 5027,4191 L 4647,3941 4804,3466 4989,3791 5027,4191 5027,4191 Z"/>
         <path fill="none" stroke="rgb(255,255,255)" stroke-width="21" stroke-linejoin="miter" d="M 5027,4191 L 4647,3941 4804,3466 4989,3791 5027,4191 5027,4191 Z"/>
         <path fill="rgb(183,138,45)" stroke="none" d="M 4876,3595 L 5061,3324 5236,3608 5114,3834 5026,3859 4876,3595 4876,3595 Z"/>
         <path fill="none" stroke="rgb(255,255,255)" stroke-width="21" stroke-linejoin="miter" d="M 4876,3595 L 5061,3324 5236,3608 5114,3834 5026,3859 4876,3595 4876,3595 Z"/>
         <path fill="rgb(183,138,45)" stroke="none" d="M 5276,3983 L 5640,4225 5359,4417 4984,4173 5276,3983 5276,3983 Z"/>
         <path fill="none" stroke="rgb(255,255,255)" stroke-width="21" stroke-linejoin="miter" d="M 5276,3983 L 5640,4225 5359,4417 4984,4173 5276,3983 5276,3983 Z"/>
         <path fill="rgb(183,138,45)" stroke="none" d="M 5102,5839 L 5015,5839 5015,4723 5102,4723 5102,5839 5102,5839 Z"/>
         <path fill="none" stroke="rgb(255,255,255)" stroke-width="21" stroke-linejoin="miter" d="M 5102,5839 L 5015,5839 5015,4723 5102,4723 5102,5839 5102,5839 Z"/>
         <path fill="none" stroke="rgb(255,255,255)" stroke-width="27" stroke-linejoin="miter" d="M 3861,4073 L 4079,4350 4259,4817 4155,5227 3937,5561 3520,5237 3795,4951 4060,4426"/>
         <path fill="none" stroke="rgb(255,255,255)" stroke-width="27" stroke-linejoin="miter" d="M 4249,4855 L 3558,4531 3795,4026"/>
         <path fill="none" stroke="rgb(255,255,255)" stroke-width="27" stroke-linejoin="miter" d="M 3852,4951 L 4107,5256"/>
         <path fill="none" stroke="rgb(255,255,255)" stroke-width="27" stroke-linejoin="miter" d="M 3511,5256 L 3710,5733 3737,5761 4098,6143 4666,6391 4732,6410 4534,5867 3643,5752"/>
         <path fill="none" stroke="rgb(255,255,255)" stroke-width="27" stroke-linejoin="miter" d="M 3975,5618 L 4117,6200"/>
         <path fill="rgb(255,255,255)" stroke="none" d="M 3643,4521 C 3643,4580 3597,4626 3539,4626 3482,4626 3435,4580 3435,4521 3435,4464 3482,4417 3539,4417 3597,4417 3643,4464 3643,4521 L 3643,4521 3643,4521 Z"/>
         <path fill="rgb(255,255,255)" stroke="none" d="M 4628,5838 C 4628,5896 4582,5943 4524,5943 4467,5943 4420,5896 4420,5838 4420,5780 4467,5733 4524,5733 4582,5733 4628,5780 4628,5838 L 4628,5838 4628,5838 Z"/>
         <path fill="rgb(255,255,255)" stroke="none" d="M 4818,6401 C 4818,6459 4771,6505 4713,6505 4656,6505 4609,6459 4609,6401 4609,6343 4656,6296 4713,6296 4771,6296 4818,6343 4818,6401 L 4818,6401 4818,6401 Z"/>
         <path fill="rgb(255,255,255)" stroke="none" d="M 3918,3997 C 3918,4055 3871,4102 3814,4102 3756,4102 3710,4055 3710,3997 3710,3939 3756,3892 3814,3892 3871,3892 3918,3939 3918,3997 L 3918,3997 3918,3997 Z"/>
         <path fill="rgb(43,43,136)" stroke="none" d="M 4193,4383 C 4193,4433 4152,4474 4103,4474 4053,4474 4013,4433 4013,4383 4013,4333 4053,4293 4103,4293 4152,4293 4193,4333 4193,4383 L 4193,4383 4193,4383 Z"/>
         <path fill="rgb(43,43,136)" stroke="none" d="M 3918,4917 C 3918,4967 3878,5008 3828,5008 3778,5008 3738,4967 3738,4917 3738,4867 3778,4827 3828,4827 3878,4827 3918,4867 3918,4917 L 3918,4917 3918,4917 Z"/>
         <path fill="rgb(43,43,136)" stroke="none" d="M 4231,5280 C 4231,5330 4190,5370 4141,5370 4091,5370 4051,5330 4051,5280 4051,5230 4091,5189 4141,5189 4190,5189 4231,5230 4231,5280 L 4231,5280 4231,5280 Z"/>
         <path fill="rgb(43,43,136)" stroke="none" d="M 3615,5232 C 3615,5282 3575,5323 3525,5323 3475,5323 3435,5282 3435,5232 3435,5182 3475,5142 3525,5142 3575,5142 3615,5182 3615,5232 L 3615,5232 3615,5232 Z"/>
         <path fill="rgb(43,43,136)" stroke="none" d="M 4032,5576 C 4032,5626 3991,5666 3942,5666 3892,5666 3852,5626 3852,5576 3852,5525 3892,5485 3942,5485 3991,5485 4032,5525 4032,5576 L 4032,5576 4032,5576 Z"/>
         <path fill="rgb(43,43,136)" stroke="none" d="M 3814,5747 C 3814,5797 3774,5838 3724,5838 3674,5838 3634,5797 3634,5747 3634,5697 3674,5656 3724,5656 3774,5656 3814,5697 3814,5747 L 3814,5747 3814,5747 Z"/>
         <path fill="rgb(43,43,136)" stroke="none" d="M 4221,6167 C 4221,6217 4181,6257 4131,6257 4082,6257 4041,6217 4041,6167 4041,6117 4082,6076 4131,6076 4181,6076 4221,6117 4221,6167 L 4221,6167 4221,6167 Z"/>
         <path fill="rgb(183,138,45)" stroke="none" d="M 5085,3875 L 5301,3482 5490,3931 5062,4230 5085,3875 5085,3875 Z"/>
         <path fill="none" stroke="rgb(255,255,255)" stroke-width="21" stroke-linejoin="miter" d="M 5085,3875 L 5301,3482 5490,3931 5062,4230 5085,3875 5085,3875 Z"/>
         <path fill="rgb(183,138,45)" stroke="none" d="M 5027,4170 L 4912,3887 5061,3695 5210,3887 5061,4204 5027,4170 5027,4170 Z"/>
         <path fill="none" stroke="rgb(255,255,255)" stroke-width="21" stroke-linejoin="miter" d="M 5027,4170 L 4912,3887 5061,3695 5210,3887 5061,4204 5027,4170 5027,4170 Z"/>
         <path fill="rgb(255,255,255)" stroke="none" d="M 2386,4753 L 2388,4731 C 2389,4717 2385,4707 2376,4701 2368,4695 2353,4691 2331,4690 2308,4689 2292,4691 2283,4696 2274,4702 2270,4713 2269,4730 L 2268,4745 2386,4753 Z M 2219,4725 C 2220,4711 2217,4702 2209,4696 2202,4691 2188,4688 2168,4686 2150,4685 2137,4687 2130,4692 2122,4696 2118,4706 2118,4720 L 2117,4736 2218,4743 2219,4725 Z M 2063,4785 L 2068,4699 C 2070,4675 2078,4657 2094,4646 2110,4635 2133,4631 2163,4632 2188,4634 2207,4638 2221,4645 2234,4652 2241,4661 2243,4673 2247,4659 2256,4650 2271,4643 2287,4636 2307,4634 2331,4635 2371,4638 2399,4646 2417,4660 2435,4674 2443,4694 2442,4721 L 2436,4808 2063,4785 Z"/>
         <path fill="rgb(255,255,255)" stroke="none" d="M 2451,4606 L 2080,4562 2086,4509 2457,4553 2451,4606 2451,4606 Z"/>
         <path fill="rgb(255,255,255)" stroke="none" d="M 2258,4420 L 2264,4391 C 2266,4375 2264,4364 2258,4357 2250,4349 2237,4344 2216,4340 2198,4337 2185,4338 2176,4343 2168,4348 2162,4359 2159,4376 L 2154,4402 2258,4420 Z M 2094,4443 L 2111,4349 C 2116,4321 2127,4302 2144,4292 2161,4282 2187,4281 2221,4287 2245,4291 2263,4298 2276,4307 2288,4316 2295,4327 2295,4341 2308,4318 2338,4309 2384,4317 2386,4317 2388,4318 2389,4318 L 2438,4325 C 2452,4327 2463,4328 2472,4327 2481,4326 2489,4324 2496,4321 L 2484,4383 C 2478,4383 2471,4383 2462,4382 2454,4382 2442,4380 2426,4377 L 2388,4371 2378,4369 C 2357,4366 2341,4366 2332,4372 2323,4377 2316,4391 2313,4412 L 2309,4430 2471,4459 2462,4510 2094,4443 Z"/>
         <path fill="rgb(255,255,255)" stroke="none" d="M 2502,4300 L 2139,4207 2153,4155 2453,4233 2477,4139 2538,4155 2502,4300 2502,4300 Z"/>
         <path fill="rgb(255,255,255)" stroke="none" d="M 2423,4027 L 2437,3984 2281,3955 2423,4027 Z M 2206,3966 L 2229,3898 2604,3957 2586,4011 2492,3994 2473,4052 2557,4096 2540,4147 2206,3966 Z"/>
         <path fill="rgb(255,255,255)" stroke="none" d="M 2648,3850 L 2307,3698 2328,3650 2670,3802 2648,3850 2648,3850 Z"/>
         <path fill="rgb(255,255,255)" stroke="none" d="M 2687,3762 L 2355,3589 2380,3540 2646,3595 2413,3475 2436,3431 2768,3603 2743,3652 2477,3597 2710,3717 2687,3762 2687,3762 Z"/>
         <path fill="rgb(255,255,255)" stroke="none" d="M 2675,3503 L 2703,3457 2723,3470 C 2743,3482 2757,3489 2766,3489 2776,3490 2783,3486 2789,3477 2795,3467 2796,3458 2793,3449 2790,3440 2782,3432 2770,3424 2760,3418 2751,3415 2742,3414 2733,3413 2720,3415 2702,3420 L 2666,3430 C 2636,3438 2613,3442 2597,3440 2582,3438 2566,3431 2548,3420 2521,3404 2504,3384 2496,3363 2489,3341 2491,3320 2505,3298 2519,3276 2537,3263 2561,3262 2584,3259 2611,3268 2641,3287 2645,3289 2647,3290 2648,3291 2650,3292 2652,3294 2653,3294 L 2626,3337 2618,3332 C 2600,3321 2586,3315 2576,3315 2566,3315 2558,3320 2552,3329 2548,3337 2547,3344 2550,3352 2553,3359 2559,3367 2569,3373 2583,3381 2603,3381 2631,3373 2631,3373 2632,3373 2632,3373 L 2669,3362 C 2695,3353 2717,3351 2735,3353 2753,3355 2772,3363 2793,3376 2822,3394 2840,3414 2848,3436 2856,3459 2853,3482 2838,3505 2823,3530 2803,3543 2780,3544 2756,3546 2727,3536 2694,3515 2690,3513 2684,3509 2676,3503 L 2675,3503 2675,3503 2675,3503 Z"/>
         <path fill="rgb(255,255,255)" stroke="none" d="M 2920,3364 L 2668,3179 2632,3229 2582,3192 2685,3049 2735,3086 2699,3135 2952,3320 2920,3364 2920,3364 Z"/>
         <path fill="rgb(255,255,255)" stroke="none" d="M 3003,3253 L 2712,3017 2745,2975 3036,3212 3003,3253 3003,3253 Z"/>
         <path fill="rgb(255,255,255)" stroke="none" d="M 3091,3147 L 2859,2937 2818,2983 2772,2941 2889,2810 2935,2852 2894,2897 3126,3107 3091,3147 3091,3147 Z"/>
         <path fill="rgb(255,255,255)" stroke="none" d="M 2923,2775 L 2961,2738 3136,2922 C 3156,2943 3171,2955 3182,2959 3193,2962 3204,2960 3213,2950 3223,2940 3226,2930 3223,2919 3220,2908 3208,2891 3187,2870 L 3013,2687 3051,2651 3230,2839 C 3247,2857 3259,2871 3265,2881 3272,2891 3276,2901 3279,2911 3282,2926 3282,2940 3277,2953 3273,2967 3264,2979 3252,2991 3229,3014 3205,3023 3183,3019 3161,3015 3134,2996 3101,2963 L 2923,2775 2923,2775 2923,2775 Z"/>
         <path fill="rgb(255,255,255)" stroke="none" d="M 3373,2869 L 3174,2627 3127,2666 3088,2618 3223,2506 3262,2554 3215,2593 3414,2835 3373,2869 3373,2869 Z"/>
         <path fill="rgb(255,255,255)" stroke="none" d="M 3478,2784 L 3260,2478 3378,2392 3415,2443 3339,2498 3389,2568 3460,2517 3494,2566 3424,2617 3484,2701 3561,2645 3598,2697 3478,2784 3478,2784 Z"/>
         <path fill="rgb(255,255,255)" stroke="none" d="M 3653,2442 C 3683,2495 3704,2528 3717,2539 3729,2550 3742,2553 3755,2545 3768,2538 3773,2526 3770,2510 3766,2494 3750,2458 3719,2404 3688,2349 3667,2317 3654,2305 3642,2294 3630,2292 3617,2299 3604,2307 3599,2318 3603,2335 3605,2352 3622,2387 3653,2442 Z M 3563,2383 C 3553,2361 3549,2343 3548,2329 3547,2310 3550,2295 3556,2283 3562,2271 3573,2260 3590,2251 3606,2242 3621,2237 3634,2238 3648,2239 3662,2245 3678,2255 3689,2263 3702,2277 3716,2296 3730,2315 3747,2342 3766,2377 3785,2412 3800,2440 3809,2462 3818,2484 3823,2502 3824,2516 3825,2535 3822,2550 3816,2563 3810,2575 3798,2585 3782,2594 3766,2603 3751,2608 3738,2607 3724,2606 3710,2600 3694,2590 3683,2582 3670,2569 3656,2549 3642,2530 3625,2503 3605,2468 3586,2433 3572,2405 3563,2383 Z"/>
         <path fill="rgb(255,255,255)" stroke="none" d="M 3891,2524 L 3732,2184 3867,2120 3893,2176 3806,2217 3843,2297 3925,2258 3950,2313 3868,2352 3939,2502 3891,2524 3891,2524 Z"/>
         <path fill="rgb(255,255,255)" stroke="none" d="M 4177,2402 L 4074,2105 4016,2125 3996,2067 4161,2008 4182,2067 4124,2087 4227,2384 4177,2402 4177,2402 Z"/>
         <path fill="rgb(255,255,255)" stroke="none" d="M 4305,2358 L 4206,1995 4347,1956 4363,2017 4273,2041 4296,2125 4380,2102 4395,2159 4312,2182 4339,2283 4431,2257 4448,2318 4305,2358 4305,2358 Z"/>
         <path fill="rgb(255,255,255)" stroke="none" d="M 4565,2158 L 4615,2148 C 4615,2149 4616,2151 4617,2154 4617,2158 4618,2160 4618,2162 4627,2204 4626,2237 4617,2261 4607,2284 4588,2298 4560,2304 4547,2307 4535,2307 4525,2304 4515,2301 4505,2296 4496,2288 4484,2277 4474,2261 4466,2239 4457,2217 4448,2179 4437,2123 4429,2085 4425,2055 4422,2032 4420,2009 4421,1991 4423,1979 4427,1961 4434,1947 4444,1937 4453,1927 4467,1921 4484,1917 4512,1912 4535,1917 4552,1934 4568,1951 4581,1981 4589,2024 L 4539,2034 4537,2026 C 4533,2006 4528,1991 4521,1982 4514,1974 4506,1970 4496,1972 4483,1975 4476,1983 4474,1998 4473,2012 4478,2050 4490,2112 4503,2178 4513,2218 4521,2232 4528,2245 4538,2251 4550,2248 4562,2246 4569,2239 4571,2226 4573,2214 4572,2193 4566,2162 L 4565,2158 4565,2158 4565,2158 Z"/>
         <path fill="rgb(255,255,255)" stroke="none" d="M 4676,2273 L 4633,1899 4685,1893 4702,2039 4774,2031 4757,1884 4809,1878 4852,2252 4800,2258 4780,2089 4709,2097 4728,2267 4676,2273 4676,2273 Z"/>
         <path fill="rgb(255,255,255)" stroke="none" d="M 4893,2249 L 4881,1873 4935,1871 5018,2132 5008,1868 5058,1867 5070,2243 5016,2245 4933,1984 4943,2247 4893,2249 4893,2249 Z"/>
         <path fill="rgb(255,255,255)" stroke="none" d="M 5168,2058 C 5166,2120 5166,2159 5171,2175 5176,2191 5186,2200 5200,2201 5215,2201 5225,2194 5231,2178 5237,2163 5241,2124 5245,2062 5248,1999 5247,1960 5242,1943 5237,1927 5227,1919 5213,1918 5199,1917 5188,1925 5182,1941 5176,1956 5171,1996 5168,2058 Z M 5123,1960 C 5127,1936 5133,1919 5139,1907 5148,1890 5159,1878 5170,1872 5182,1865 5197,1862 5216,1863 5234,1864 5249,1868 5260,1876 5271,1884 5281,1896 5288,1914 5294,1927 5297,1945 5298,1969 5300,1992 5300,2024 5298,2064 5296,2104 5294,2135 5290,2159 5286,2183 5281,2201 5274,2213 5265,2229 5255,2241 5243,2248 5231,2255 5216,2258 5197,2257 5179,2256 5164,2251 5153,2244 5142,2236 5133,2223 5125,2205 5120,2193 5116,2175 5114,2151 5113,2127 5113,2095 5115,2055 5116,2015 5119,1984 5123,1960 Z"/>
         <path fill="rgb(255,255,255)" stroke="none" d="M 5327,2256 L 5372,1882 5424,1888 5386,2199 5482,2210 5474,2274 5327,2256 5327,2256 Z"/>
         <path fill="rgb(255,255,255)" stroke="none" d="M 5587,2103 C 5575,2164 5570,2203 5572,2220 5574,2236 5583,2246 5597,2249 5611,2252 5622,2246 5631,2232 5639,2218 5649,2180 5661,2118 5673,2057 5678,2018 5676,2001 5674,1985 5665,1975 5651,1972 5637,1969 5626,1975 5617,1990 5609,2004 5598,2042 5587,2103 Z M 5556,2000 C 5563,1977 5571,1960 5580,1950 5591,1934 5603,1924 5615,1919 5628,1914 5644,1914 5662,1917 5680,1921 5694,1928 5704,1937 5714,1946 5721,1960 5726,1979 5729,1992 5730,2011 5728,2035 5726,2058 5722,2090 5714,2129 5706,2168 5699,2199 5691,2221 5684,2244 5676,2261 5668,2272 5656,2287 5644,2297 5632,2302 5619,2307 5604,2308 5586,2304 5567,2301 5553,2294 5544,2285 5534,2275 5527,2262 5522,2243 5518,2230 5517,2211 5519,2188 5521,2163 5526,2132 5534,2093 5541,2054 5549,2023 5556,2000 Z"/>
         <path fill="rgb(255,255,255)" stroke="none" d="M 5848,2361 L 5856,2320 C 5845,2336 5835,2346 5824,2351 5813,2356 5799,2356 5783,2352 5754,2344 5738,2323 5735,2291 5731,2259 5740,2205 5762,2128 5772,2093 5782,2064 5790,2044 5799,2023 5808,2007 5818,1997 5829,1985 5841,1977 5855,1973 5869,1970 5884,1971 5902,1976 5931,1984 5950,1999 5959,2022 5968,2044 5966,2075 5956,2114 L 5953,2123 5905,2110 5906,2106 C 5912,2084 5914,2067 5911,2054 5908,2041 5901,2033 5889,2029 5874,2025 5862,2029 5852,2043 5842,2056 5828,2096 5809,2160 5795,2212 5788,2247 5788,2265 5789,2284 5796,2295 5809,2299 5823,2303 5834,2300 5843,2289 5852,2279 5861,2259 5869,2229 L 5873,2217 5838,2207 5854,2149 5939,2173 5882,2371 5848,2361 5848,2361 5848,2361 Z"/>
         <path fill="rgb(255,255,255)" stroke="none" d="M 5970,2402 L 6026,2253 6031,2023 6086,2044 6077,2192 6166,2074 6220,2094 6076,2272 6020,2421 5970,2402 5970,2402 Z"/>
         <path fill="rgb(255,255,255)" stroke="none" d="M 6389,2305 C 6398,2302 6406,2298 6413,2293 6419,2288 6424,2282 6428,2275 6432,2266 6434,2260 6433,2254 6432,2248 6429,2244 6424,2241 6418,2239 6413,2238 6408,2241 6403,2243 6399,2248 6395,2256 6394,2258 6393,2260 6393,2263 6392,2266 6392,2269 6391,2272 L 6389,2305 Z M 6334,2374 C 6323,2377 6313,2382 6304,2389 6296,2397 6288,2406 6283,2417 6275,2432 6272,2447 6273,2460 6274,2474 6279,2484 6289,2488 6294,2491 6300,2493 6306,2492 6313,2492 6320,2490 6329,2486 L 6334,2374 Z M 6326,2536 C 6315,2542 6303,2544 6292,2544 6281,2544 6270,2541 6258,2535 6236,2523 6223,2505 6219,2481 6216,2456 6222,2428 6237,2398 6248,2378 6260,2362 6275,2350 6290,2339 6311,2328 6338,2320 6338,2301 6340,2285 6342,2273 6345,2261 6349,2249 6354,2239 6364,2219 6378,2205 6394,2198 6410,2191 6426,2191 6443,2200 6460,2209 6471,2222 6475,2238 6479,2253 6476,2272 6465,2292 6457,2309 6445,2323 6432,2334 6419,2345 6403,2353 6387,2357 L 6382,2442 C 6387,2436 6393,2428 6398,2420 6404,2412 6409,2403 6415,2392 L 6417,2387 6456,2407 C 6444,2430 6432,2450 6419,2466 6406,2482 6393,2495 6378,2505 L 6373,2588 6324,2562 6326,2536 Z"/>
         <path fill="rgb(255,255,255)" stroke="none" d="M 6551,2542 L 6595,2572 6582,2592 C 6568,2611 6562,2625 6561,2635 6559,2644 6563,2652 6572,2658 6582,2664 6590,2666 6599,2663 6608,2660 6617,2652 6625,2640 6631,2631 6635,2622 6636,2613 6637,2604 6636,2590 6632,2572 L 6624,2536 C 6616,2505 6614,2482 6616,2467 6619,2451 6626,2435 6638,2417 6655,2391 6675,2374 6696,2368 6718,2361 6739,2364 6760,2378 6782,2393 6793,2412 6795,2436 6796,2460 6786,2487 6766,2517 6764,2520 6763,2522 6761,2523 6760,2525 6759,2526 6758,2527 L 6716,2499 6723,2491 C 6734,2474 6740,2460 6741,2450 6741,2440 6737,2431 6727,2425 6720,2420 6713,2419 6705,2422 6697,2424 6690,2431 6684,2440 6675,2454 6674,2474 6681,2503 6681,2503 6682,2503 6682,2503 L 6691,2541 C 6698,2568 6700,2590 6697,2608 6695,2625 6686,2645 6672,2666 6653,2694 6632,2712 6610,2719 6588,2726 6565,2721 6542,2706 6518,2690 6506,2670 6505,2646 6505,2622 6516,2593 6538,2560 6540,2557 6544,2551 6550,2543 L 6551,2542 6551,2542 6551,2542 Z"/>
         <path fill="rgb(255,255,255)" stroke="none" d="M 6819,2735 L 6859,2766 C 6858,2768 6856,2770 6854,2772 6853,2775 6851,2777 6850,2778 6823,2812 6798,2833 6774,2841 6751,2849 6727,2844 6705,2826 6694,2818 6686,2809 6682,2799 6677,2789 6675,2778 6675,2766 6676,2750 6682,2732 6692,2711 6704,2691 6726,2659 6762,2614 6785,2584 6805,2560 6821,2544 6837,2527 6851,2516 6862,2511 6878,2502 6893,2498 6907,2499 6921,2500 6934,2506 6948,2517 6970,2535 6981,2556 6979,2580 6977,2603 6962,2633 6935,2667 L 6895,2635 6900,2628 C 6913,2612 6921,2599 6923,2588 6925,2577 6922,2568 6914,2562 6904,2554 6893,2554 6881,2562 6869,2570 6843,2598 6805,2647 6763,2700 6739,2734 6734,2748 6728,2763 6730,2774 6740,2782 6750,2789 6760,2790 6771,2784 6782,2778 6796,2763 6816,2739 L 6819,2735 6819,2735 6819,2735 Z"/>
         <path fill="rgb(255,255,255)" stroke="none" d="M 6804,2897 L 7053,2616 7092,2651 6843,2932 6804,2897 6804,2897 Z"/>
         <path fill="rgb(255,255,255)" stroke="none" d="M 6877,2962 L 7139,2694 7243,2797 7199,2842 7133,2776 7072,2837 7134,2899 7092,2941 7031,2880 6958,2954 7026,3021 6982,3066 6877,2962 6877,2962 Z"/>
         <path fill="rgb(255,255,255)" stroke="none" d="M 7004,3090 L 7286,2843 7322,2884 7173,3113 7370,2939 7402,2977 7121,3224 7085,3183 7234,2953 7037,3128 7004,3090 7004,3090 Z"/>
         <path fill="rgb(255,255,255)" stroke="none" d="M 7320,3269 L 7351,3311 C 7350,3311 7348,3313 7345,3315 7343,3317 7341,3318 7339,3320 7305,3345 7275,3359 7250,3360 7225,3362 7204,3351 7187,3328 7179,3317 7174,3306 7172,3295 7170,3285 7170,3274 7174,3262 7178,3247 7189,3231 7205,3214 7221,3197 7251,3172 7297,3138 7327,3115 7352,3097 7372,3086 7392,3074 7408,3067 7420,3064 7438,3060 7454,3060 7466,3065 7479,3069 7491,3078 7501,3093 7518,3116 7523,3139 7515,3161 7507,3184 7485,3208 7450,3234 L 7420,3193 7427,3188 C 7443,3175 7454,3165 7459,3155 7463,3145 7463,3135 7457,3127 7450,3117 7439,3114 7426,3119 7411,3123 7380,3144 7329,3182 7275,3222 7244,3248 7235,3260 7226,3273 7225,3284 7233,3294 7240,3304 7249,3307 7261,3304 7273,3301 7291,3291 7316,3272 L 7320,3269 7320,3269 7320,3269 Z"/>
         <path fill="rgb(255,255,255)" stroke="none" d="M 7264,3421 L 7580,3219 7658,3343 7605,3376 7556,3297 7483,3344 7529,3417 7479,3449 7433,3375 7346,3431 7397,3512 7343,3546 7264,3421 7264,3421 Z"/>
         <path fill="rgb(255,255,255)" stroke="none" d="M 7296,3612 L 7318,3599 C 7323,3606 7330,3609 7339,3609 7348,3609 7358,3606 7369,3600 L 7372,3598 7359,3576 7418,3543 7441,3584 7382,3618 C 7365,3628 7348,3632 7332,3631 7317,3630 7304,3624 7296,3612 L 7296,3612 7296,3612 Z"/>
         <path fill="rgb(255,255,255)" stroke="none" d="M 7658,3697 L 7668,3718 C 7675,3733 7683,3742 7694,3745 7704,3747 7719,3744 7738,3736 7757,3727 7769,3718 7773,3709 7778,3700 7777,3688 7770,3672 L 7760,3651 7658,3697 Z M 7787,3583 L 7825,3667 C 7836,3693 7837,3715 7827,3733 7817,3751 7794,3768 7760,3784 7727,3799 7699,3804 7677,3800 7655,3795 7639,3780 7628,3756 L 7612,3720 7468,3786 7446,3738 7787,3583 Z"/>
         <path fill="rgb(255,255,255)" stroke="none" d="M 7526,3923 L 7875,3788 7894,3838 7545,3973 7526,3923 7526,3923 Z"/>
         <path fill="rgb(255,255,255)" stroke="none" d="M 7561,4014 L 7916,3898 7932,3948 7637,4045 7667,4136 7606,4156 7561,4014 7561,4014 Z"/>
         <path fill="rgb(255,255,255)" stroke="none" d="M 7773,4202 L 7784,4246 7931,4186 7773,4202 Z M 7988,4137 L 8005,4206 7657,4359 7643,4303 7731,4267 7717,4208 7622,4217 7609,4164 7988,4137 Z"/>
         <path fill="rgb(255,255,255)" stroke="none" d="M 7661,4380 L 8030,4320 8038,4375 7792,4490 8050,4446 8058,4496 7689,4556 7680,4502 7927,4386 7669,4430 7661,4380 7661,4380 Z"/>
         <path fill="rgb(255,255,255)" stroke="none" d="M 7693,4599 L 8065,4562 8070,4614 7698,4652 7693,4599 7693,4599 Z"/>
         <path fill="rgb(43,43,136)" stroke="none" d="M 6427,4237 L 6502,3970 6460,3970 C 6460,3970 6410,4370 6154,4512 6154,4512 6203,4654 6137,4763 L 5905,5521 5773,5655 5666,5962 5785,6005 5806,5964 C 5806,5964 5864,5872 5897,5955 L 5872,6030 5980,6072 6021,5905 6046,5813 6054,5605 6319,4771 6461,4596 C 6460,4596 6386,4396 6427,4237 L 6427,4237 6427,4237 Z"/>
         <path fill="rgb(43,43,136)" stroke="none" d="M 5235,6531 L 5326,6497 5367,6506 5409,6447 5425,6480 5491,6414 5516,6439 C 5610,6376 5749,6081 5763,6050 L 5650,6009 C 5561,6296 5235,6531 5235,6531 L 5235,6531 5235,6531 Z"/>
         <path fill="rgb(43,43,136)" stroke="none" d="M 5607,6414 L 5707,6364 5707,6405 5764,6356 5781,6397 C 5845,6347 5943,6173 5974,6117 L 5859,6076 C 5805,6232 5607,6414 5607,6414 L 5607,6414 5607,6414 Z"/>
         <path fill="none" stroke="rgb(179,141,6)" stroke-width="42" stroke-linejoin="miter" d="M 6808,5146 C 6808,5146 6518,5038 6286,4687"/>
         <path fill="none" stroke="rgb(179,141,6)" stroke-width="42" stroke-linejoin="miter" d="M 5798,4837 C 5798,4837 6253,4837 6419,4696"/>
         <path fill="none" stroke="rgb(179,141,6)" stroke-width="42" stroke-linejoin="miter" d="M 5856,4763 C 5856,4763 5822,5146 5673,5388"/>
         <path fill="none" stroke="rgb(179,141,6)" stroke-width="42" stroke-linejoin="miter" d="M 5640,5296 C 5640,5296 5814,5371 5955,5722"/>
         <path fill="none" stroke="rgb(179,141,6)" stroke-width="42" stroke-linejoin="miter" d="M 5914,5705 L 6005,5655 6444,5488"/>
         <path fill="none" stroke="rgb(179,141,6)" stroke-width="42" stroke-linejoin="miter" d="M 6377,5588 C 6377,5588 6419,5171 6477,5096"/>
         <path fill="none" stroke="rgb(179,141,6)" stroke-width="42" stroke-linejoin="miter" d="M 6502,5188 C 6502,5188 6278,5029 6203,4871"/>
         <path fill="none" stroke="rgb(179,141,6)" stroke-width="42" stroke-linejoin="miter" d="M 6030,4937 L 5889,5330"/>
         <path fill="none" stroke="rgb(179,141,6)" stroke-width="42" stroke-linejoin="miter" d="M 5872,5246 L 6004,5463"/>
         <path fill="none" stroke="rgb(179,141,6)" stroke-width="42" stroke-linejoin="miter" d="M 5963,5438 C 5963,5438 6071,5388 6212,5405"/>
         <path fill="none" stroke="rgb(179,141,6)" stroke-width="42" stroke-linejoin="miter" d="M 6162,5455 L 6286,5180"/>
         <path fill="none" stroke="rgb(179,141,6)" stroke-width="42" stroke-linejoin="miter" d="M 6121,5088 L 6236,5271"/>
         <path fill="none" stroke="rgb(179,141,6)" stroke-width="42" stroke-linejoin="miter" d="M 5955,5013 L 6261,4912"/>
         <path fill="none" stroke="rgb(179,141,6)" stroke-width="42" stroke-linejoin="miter" d="M 5965,5162 L 6228,5138"/>
         <path fill="none" stroke="rgb(255,255,255)" stroke-width="27" stroke-linejoin="miter" d="M 6484,7651 C 6484,7651 6483,7548 6653,7622"/>
        </g>
       </g>
      </g>
      <g class="Group">
       <g class="com.sun.star.drawing.ClosedBezierShape">
        <g id="id4">
         <rect class="BoundingBox" stroke="none" fill="none" x="9950" y="2174" width="1954" height="2416"/>
         <path fill="rgb(33,29,112)" stroke="none" d="M 10423,2594 L 10423,3126 11005,3126 C 11108,3126 11192,3105 11257,3066 11323,3025 11354,2955 11354,2853 11354,2741 11312,2667 11225,2632 11152,2606 11057,2594 10943,2594 L 10423,2594 Z M 10423,3527 L 10423,4169 11005,4169 C 11108,4169 11189,4155 11246,4127 11351,4074 11404,3974 11404,3825 11404,3700 11353,3614 11252,3566 11195,3540 11116,3527 11012,3527 L 10423,3527 Z M 11101,2174 C 11390,2179 11596,2265 11717,2431 11791,2534 11827,2657 11827,2799 11827,2947 11791,3066 11717,3155 11677,3206 11617,3251 11537,3292 11659,3337 11750,3409 11812,3506 11873,3602 11903,3720 11903,3860 11903,4003 11869,4131 11798,4245 11753,4321 11696,4383 11629,4434 11554,4494 11464,4535 11360,4557 11257,4579 11144,4589 11023,4589 L 9950,4589 9950,2174 11101,2174 Z"/>
        </g>
       </g>
       <g class="com.sun.star.drawing.ClosedBezierShape">
        <g id="id5">
         <rect class="BoundingBox" stroke="none" fill="none" x="12281" y="2126" width="494" height="2464"/>
         <path fill="rgb(33,29,112)" stroke="none" d="M 12773,4589 C 12608,4589 12445,4589 12281,4589 12281,3784 12281,2979 12281,2174 12445,2174 12608,2174 12773,2174 12773,2979 12773,3784 12773,4589 Z M 12527,2126 L 12527,2126 Z"/>
        </g>
       </g>
       <g class="com.sun.star.drawing.ClosedBezierShape">
        <g id="id6">
         <rect class="BoundingBox" stroke="none" fill="none" x="13035" y="2174" width="1920" height="2416"/>
         <path fill="rgb(33,29,112)" stroke="none" d="M 14954,2174 C 14954,2317 14954,2460 14954,2601 14717,2601 14482,2601 14246,2601 14246,3264 14246,3927 14246,4589 14080,4589 13913,4589 13747,4589 13747,3927 13747,3264 13747,2601 13510,2601 13273,2601 13036,2601 13036,2460 13036,2317 13036,2174 13675,2174 14315,2174 14954,2174 Z"/>
        </g>
       </g>
       <g class="com.sun.star.drawing.ClosedBezierShape">
        <g id="id7">
         <rect class="BoundingBox" stroke="none" fill="none" x="15126" y="2100" width="1944" height="2551"/>
         <path fill="rgb(33,29,112)" stroke="none" d="M 15599,3843 C 15614,3953 15644,4035 15688,4090 15767,4190 15905,4239 16100,4239 16217,4239 16312,4226 16385,4200 16523,4149 16592,4055 16592,3920 16592,3840 16558,3779 16489,3735 16421,3691 16313,3653 16166,3621 L 15915,3564 C 15669,3508 15498,3445 15404,3379 15245,3267 15166,3092 15166,2856 15166,2639 15242,2460 15397,2317 15551,2174 15778,2103 16076,2103 16325,2103 16538,2170 16715,2304 16891,2440 16984,2635 16993,2893 L 16516,2893 C 16508,2747 16445,2644 16329,2582 16253,2542 16157,2521 16043,2521 15916,2521 15813,2547 15737,2600 15660,2652 15623,2727 15623,2820 15623,2906 15660,2971 15735,3014 15783,3041 15887,3075 16044,3113 L 16453,3213 C 16631,3257 16766,3315 16858,3388 16999,3502 17069,3666 17069,3882 17069,4102 16987,4286 16820,4431 16655,4577 16421,4650 16120,4650 15811,4650 15569,4579 15392,4434 15215,4292 15127,4093 15127,3843 L 15599,3843 Z M 16079,2100 L 16079,2100 Z"/>
        </g>
       </g>
       <g class="com.sun.star.drawing.ClosedBezierShape">
        <g id="id8">
         <rect class="BoundingBox" stroke="none" fill="none" x="18357" y="2174" width="1640" height="2416"/>
         <path fill="rgb(33,29,112)" stroke="none" d="M 18581,4589 L 18581,3522 19087,3522 C 19318,3527 19525,3481 19709,3385 19895,3289 19991,3110 19996,2848 19999,2660 19946,2501 19841,2371 19786,2311 19708,2262 19607,2224 19507,2190 19378,2174 19222,2174 L 18358,2174 18358,4589 18581,4589 Z M 18581,3330 L 18581,2370 19159,2370 C 19570,2370 19774,2523 19772,2830 19769,3028 19711,3162 19595,3229 19474,3296 19307,3330 19094,3330 L 18581,3330 Z"/>
        </g>
       </g>
       <g class="com.sun.star.drawing.ClosedBezierShape">
        <g id="id9">
         <rect class="BoundingBox" stroke="none" fill="none" x="20366" y="2172" width="219" height="2418"/>
         <path fill="rgb(33,29,112)" stroke="none" d="M 20573,4589 C 20573,4009 20573,3429 20573,2850 20507,2850 20441,2850 20375,2850 20375,3429 20375,4009 20375,4589 20441,4589 20507,4589 20573,4589 Z M 20583,2472 C 20583,2371 20583,2272 20583,2173 20510,2173 20438,2173 20366,2173 20366,2272 20366,2371 20366,2472 20438,2472 20510,2472 20583,2472 Z"/>
        </g>
       </g>
       <g class="com.sun.star.drawing.ClosedBezierShape">
        <g id="id10">
         <rect class="BoundingBox" stroke="none" fill="none" x="21108" y="2172" width="200" height="2418"/>
         <path fill="rgb(33,29,112)" stroke="none" d="M 21307,4589 C 21307,3783 21307,2979 21307,2173 21241,2173 21175,2173 21109,2173 21109,2979 21109,3783 21109,4589 21175,4589 21241,4589 21307,4589 Z"/>
        </g>
       </g>
       <g class="com.sun.star.drawing.ClosedBezierShape">
        <g id="id11">
         <rect class="BoundingBox" stroke="none" fill="none" x="21723" y="2803" width="1609" height="1832"/>
         <path fill="rgb(33,29,112)" stroke="none" d="M 22925,3675 L 22925,3946 C 22921,4121 22858,4249 22735,4329 22612,4412 22468,4453 22304,4453 22207,4453 22123,4427 22049,4373 21974,4322 21937,4245 21934,4141 21938,3914 22099,3790 22415,3771 22501,3767 22586,3757 22672,3742 22757,3729 22841,3706 22925,3675 Z M 22319,3611 C 21922,3666 21724,3841 21724,4134 21725,4302 21784,4426 21899,4506 22009,4590 22139,4634 22292,4634 22546,4634 22757,4538 22928,4347 22931,4407 22942,4462 22961,4510 22981,4560 23023,4590 23086,4603 23116,4611 23144,4614 23174,4614 23206,4614 23237,4608 23267,4598 23296,4590 23317,4586 23330,4582 L 23330,4424 C 23249,4452 23194,4456 23165,4434 23134,4412 23120,4364 23123,4290 L 23123,3343 C 23120,3143 23060,3003 22945,2920 22828,2843 22681,2804 22505,2804 22315,2804 22156,2848 22027,2933 21898,3025 21823,3172 21802,3376 L 22003,3376 C 22025,3226 22079,3123 22166,3063 22253,3008 22364,2982 22499,2983 22654,2986 22763,3018 22829,3082 22894,3146 22925,3231 22925,3336 22925,3368 22922,3401 22916,3438 22906,3473 22885,3499 22853,3518 22817,3531 22777,3543 22727,3553 22678,3562 22633,3569 22592,3575 L 22319,3611 Z"/>
        </g>
       </g>
       <g class="com.sun.star.drawing.ClosedBezierShape">
        <g id="id12">
         <rect class="BoundingBox" stroke="none" fill="none" x="23634" y="2803" width="1355" height="1788"/>
         <path fill="rgb(33,29,112)" stroke="none" d="M 23833,3652 C 23830,3537 23845,3428 23876,3323 23911,3228 23968,3149 24046,3085 24125,3020 24227,2986 24350,2986 24647,2986 24794,3142 24790,3455 L 24790,4589 24988,4589 24988,3451 C 24988,3377 24985,3307 24977,3240 24970,3174 24944,3112 24902,3052 24773,2881 24599,2798 24382,2804 24266,2804 24166,2830 24080,2881 23992,2932 23909,3004 23833,3093 L 23833,2851 23635,2851 23635,4589 23833,4589 23833,3652 Z"/>
        </g>
       </g>
       <g class="com.sun.star.drawing.ClosedBezierShape">
        <g id="id13">
         <rect class="BoundingBox" stroke="none" fill="none" x="25482" y="2172" width="219" height="2418"/>
         <path fill="rgb(33,29,112)" stroke="none" d="M 25689,4589 C 25689,4009 25689,3429 25689,2850 25623,2850 25557,2850 25491,2850 25491,3429 25491,4009 25491,4589 25557,4589 25623,4589 25689,4589 Z M 25700,2472 C 25700,2371 25700,2272 25700,2173 25626,2173 25554,2173 25482,2173 25482,2272 25482,2371 25482,2472 25554,2472 25626,2472 25700,2472 Z"/>
        </g>
       </g>
      </g>
      <g class="Group">
       <g class="com.sun.star.drawing.ClosedBezierShape">
        <g id="id14">
         <rect class="BoundingBox" stroke="none" fill="none" x="12450" y="5400" width="967" height="1148"/>
         <path fill="rgb(33,29,112)" stroke="none" d="M 13265,6070 C 13267,6123 13253,6179 13225,6240 13194,6298 13152,6340 13103,6365 13050,6392 12997,6405 12945,6405 12838,6403 12755,6364 12696,6287 12635,6211 12605,6117 12605,6007 12603,5863 12632,5751 12689,5666 12745,5583 12835,5542 12957,5542 13029,5542 13091,5563 13146,5600 13198,5639 13233,5700 13254,5787 L 13412,5787 C 13383,5646 13328,5544 13245,5486 13163,5428 13066,5400 12949,5400 12780,5402 12654,5458 12571,5566 12490,5671 12450,5805 12450,5968 12452,6159 12496,6301 12584,6398 12672,6497 12785,6547 12926,6547 13029,6547 13114,6527 13181,6488 13245,6448 13277,6427 13278,6420 L 13275,6520 13415,6520 13415,5926 12922,5926 12922,6070 13265,6070 Z"/>
        </g>
       </g>
       <g class="com.sun.star.drawing.ClosedBezierShape">
        <g id="id15">
         <rect class="BoundingBox" stroke="none" fill="none" x="13582" y="5697" width="389" height="825"/>
         <path fill="rgb(33,29,112)" stroke="none" d="M 13727,6126 C 13725,6045 13741,5977 13771,5923 13802,5874 13867,5851 13969,5851 L 13969,5697 C 13883,5697 13819,5710 13776,5736 13733,5763 13706,5812 13696,5880 L 13699,5884 13727,5716 13583,5716 13583,6520 13727,6520 13727,6126 Z"/>
        </g>
       </g>
       <g class="com.sun.star.drawing.ClosedBezierShape">
        <g id="id16">
         <rect class="BoundingBox" stroke="none" fill="none" x="14012" y="5698" width="752" height="844"/>
         <path fill="rgb(33,29,112)" stroke="none" d="M 14529,6145 L 14529,6217 C 14528,6281 14504,6328 14461,6356 14411,6387 14355,6405 14291,6405 14256,6405 14224,6395 14199,6375 14175,6359 14162,6334 14162,6301 14164,6222 14223,6179 14339,6173 14378,6170 14416,6167 14454,6159 14492,6154 14518,6148 14529,6145 Z M 14295,6045 C 14106,6070 14012,6154 14012,6298 14014,6380 14042,6441 14100,6481 14151,6520 14213,6541 14287,6541 14403,6541 14489,6503 14545,6428 14536,6431 14537,6445 14547,6470 14559,6502 14583,6520 14622,6528 14636,6531 14650,6533 14665,6533 14682,6533 14698,6530 14713,6525 14725,6522 14741,6517 14762,6511 L 14762,6380 C 14709,6397 14682,6405 14678,6401 14673,6398 14671,6386 14673,6365 L 14673,5959 C 14671,5863 14641,5796 14583,5754 14528,5718 14459,5699 14378,5699 14290,5699 14216,5719 14156,5760 14092,5804 14055,5885 14042,6004 L 14188,6004 C 14197,5932 14218,5885 14247,5865 14280,5844 14322,5835 14374,5835 14433,5837 14473,5848 14496,5869 14518,5891 14529,5920 14529,5956 14529,5968 14528,5981 14524,5993 14523,5999 14520,6004 14515,6007 14502,6012 14486,6015 14467,6020 14446,6023 14429,6026 14411,6029 L 14295,6045 Z"/>
        </g>
       </g>
       <g class="com.sun.star.drawing.ClosedBezierShape">
        <g id="id17">
         <rect class="BoundingBox" stroke="none" fill="none" x="14816" y="5428" width="733" height="1114"/>
         <path fill="rgb(33,29,112)" stroke="none" d="M 15405,6118 C 15405,6201 15386,6272 15348,6325 15311,6376 15257,6403 15187,6403 15123,6403 15070,6381 15030,6337 14990,6294 14968,6228 14966,6142 14963,6053 14981,5979 15019,5920 15054,5865 15110,5837 15187,5835 15254,5837 15308,5863 15345,5915 15384,5970 15405,6037 15405,6118 Z M 15412,5785 C 15412,5779 15386,5761 15335,5735 15284,5710 15230,5697 15172,5697 15051,5700 14960,5743 14903,5827 14845,5909 14816,6006 14816,6121 14815,6239 14844,6337 14899,6416 14958,6497 15051,6539 15177,6541 15230,6541 15284,6525 15337,6497 15388,6470 15421,6427 15434,6367 L 15431,6364 15405,6520 15547,6520 15547,5428 15405,5428 15412,5785 Z"/>
        </g>
       </g>
       <g class="com.sun.star.drawing.ClosedBezierShape">
        <g id="id18">
         <rect class="BoundingBox" stroke="none" fill="none" x="15670" y="5697" width="723" height="845"/>
         <path fill="rgb(33,29,112)" stroke="none" d="M 15823,6037 C 15828,5991 15850,5946 15887,5901 15921,5857 15972,5835 16037,5835 16103,5835 16154,5857 16187,5899 16221,5943 16238,5988 16238,6037 L 15823,6037 Z M 16388,6168 C 16382,5857 16264,5699 16037,5697 15921,5699 15831,5741 15767,5822 15702,5902 15670,6002 15670,6121 15669,6240 15699,6337 15756,6416 15817,6497 15911,6538 16037,6541 16136,6539 16214,6513 16270,6461 16323,6411 16363,6334 16391,6232 L 16237,6232 C 16205,6345 16138,6401 16037,6401 15965,6401 15911,6378 15876,6328 15838,6278 15820,6225 15820,6168 L 16388,6168 Z"/>
        </g>
       </g>
       <g class="com.sun.star.drawing.ClosedBezierShape">
        <g id="id19">
         <rect class="BoundingBox" stroke="none" fill="none" x="16897" y="5428" width="1018" height="1094"/>
         <path fill="rgb(33,29,112)" stroke="none" d="M 17052,6520 C 17042,6204 17034,5888 17025,5572 L 17023,5574 C 17128,5890 17234,6204 17339,6520 17384,6520 17427,6520 17472,6520 17577,6204 17682,5890 17788,5574 17786,5574 17786,5572 17784,5572 17776,5888 17767,6204 17759,6520 17810,6520 17861,6520 17914,6520 17914,6156 17914,5793 17914,5428 17848,5428 17783,5428 17717,5428 17614,5741 17510,6053 17408,6365 L 17409,6365 C 17304,6053 17199,5741 17093,5428 17028,5428 16963,5428 16897,5428 16897,5793 16897,6156 16897,6520 16948,6520 17001,6520 17052,6520 Z"/>
        </g>
       </g>
       <g class="com.sun.star.drawing.ClosedBezierShape">
        <g id="id20">
         <rect class="BoundingBox" stroke="none" fill="none" x="18022" y="5698" width="739" height="844"/>
         <path fill="rgb(33,29,112)" stroke="none" d="M 18391,6541 C 18504,6541 18595,6502 18660,6422 18726,6348 18759,6248 18759,6121 18759,6001 18729,5902 18670,5824 18608,5743 18514,5700 18391,5699 18268,5700 18175,5743 18113,5822 18052,5902 18022,6001 18022,6120 18024,6258 18059,6362 18131,6433 18199,6505 18285,6541 18391,6541 Z M 18611,6120 C 18611,6196 18593,6264 18558,6322 18525,6376 18469,6403 18391,6403 18319,6403 18266,6378 18231,6328 18191,6276 18172,6207 18172,6120 18172,6043 18190,5976 18225,5918 18258,5865 18312,5838 18391,5835 18470,5837 18526,5862 18558,5913 18593,5966 18611,6037 18611,6120 Z"/>
        </g>
       </g>
       <g class="com.sun.star.drawing.ClosedBezierShape">
        <g id="id21">
         <rect class="BoundingBox" stroke="none" fill="none" x="18837" y="5428" width="733" height="1114"/>
         <path fill="rgb(33,29,112)" stroke="none" d="M 19426,6118 C 19426,6201 19407,6272 19369,6325 19332,6376 19278,6403 19208,6403 19144,6403 19091,6381 19051,6337 19011,6294 18989,6228 18988,6142 18984,6053 19002,5979 19040,5920 19075,5865 19131,5837 19208,5835 19275,5837 19329,5863 19366,5915 19406,5970 19426,6037 19426,6118 Z M 19433,5785 C 19433,5779 19407,5761 19356,5735 19305,5710 19251,5697 19193,5697 19072,5700 18981,5743 18924,5827 18866,5909 18838,6006 18838,6121 18836,6239 18865,6337 18920,6416 18980,6497 19072,6539 19198,6541 19251,6541 19305,6525 19358,6497 19409,6470 19442,6427 19455,6367 L 19452,6364 19426,6520 19568,6520 19568,5428 19426,5428 19433,5785 Z"/>
        </g>
       </g>
       <g class="com.sun.star.drawing.ClosedBezierShape">
        <g id="id22">
         <rect class="BoundingBox" stroke="none" fill="none" x="19689" y="5697" width="723" height="845"/>
         <path fill="rgb(33,29,112)" stroke="none" d="M 19843,6037 C 19848,5991 19870,5946 19907,5901 19940,5857 19991,5835 20057,5835 20122,5835 20173,5857 20207,5899 20240,5943 20258,5988 20258,6037 L 19843,6037 Z M 20408,6168 C 20401,5857 20283,5699 20057,5697 19940,5699 19851,5741 19787,5822 19722,5902 19690,6002 19690,6121 19688,6240 19718,6337 19776,6416 19836,6497 19931,6538 20057,6541 20156,6539 20234,6513 20290,6461 20342,6411 20382,6334 20411,6232 L 20256,6232 C 20224,6345 20157,6401 20057,6401 19985,6401 19931,6378 19895,6328 19857,6278 19840,6225 19840,6168 L 20408,6168 Z"/>
        </g>
       </g>
       <g class="com.sun.star.drawing.ClosedBezierShape">
        <g id="id23">
         <rect class="BoundingBox" stroke="none" fill="none" x="20522" y="5697" width="388" height="825"/>
         <path fill="rgb(33,29,112)" stroke="none" d="M 20666,6126 C 20664,6045 20680,5977 20711,5923 20741,5874 20807,5851 20909,5851 L 20909,5697 C 20822,5697 20759,5710 20716,5736 20672,5763 20645,5812 20636,5880 L 20639,5884 20666,5716 20522,5716 20522,6520 20666,6520 20666,6126 Z"/>
        </g>
       </g>
       <g class="com.sun.star.drawing.ClosedBezierShape">
        <g id="id24">
         <rect class="BoundingBox" stroke="none" fill="none" x="20950" y="5698" width="752" height="844"/>
         <path fill="rgb(33,29,112)" stroke="none" d="M 21467,6145 L 21467,6217 C 21466,6281 21442,6328 21398,6356 21349,6387 21293,6405 21229,6405 21194,6405 21162,6395 21137,6375 21113,6359 21100,6334 21100,6301 21102,6222 21161,6179 21277,6173 21316,6170 21354,6167 21392,6159 21430,6154 21456,6148 21467,6145 Z M 21233,6045 C 21044,6070 20950,6154 20950,6298 20952,6380 20980,6441 21038,6481 21089,6520 21151,6541 21225,6541 21341,6541 21427,6503 21483,6428 21473,6431 21475,6445 21485,6470 21497,6502 21521,6520 21560,6528 21574,6531 21588,6533 21603,6533 21620,6533 21636,6530 21651,6525 21663,6522 21679,6517 21700,6511 L 21700,6380 C 21647,6397 21620,6405 21616,6401 21611,6398 21609,6386 21611,6365 L 21611,5959 C 21609,5863 21579,5796 21521,5754 21466,5718 21397,5699 21316,5699 21228,5699 21154,5719 21094,5760 21030,5804 20993,5885 20980,6004 L 21126,6004 C 21135,5932 21156,5885 21185,5865 21218,5844 21260,5835 21312,5835 21371,5837 21411,5848 21434,5869 21456,5891 21467,5920 21467,5956 21467,5968 21466,5981 21462,5993 21461,5999 21458,6004 21453,6007 21440,6012 21424,6015 21405,6020 21384,6023 21367,6026 21349,6029 L 21233,6045 Z"/>
        </g>
       </g>
       <g class="com.sun.star.drawing.ClosedBezierShape">
        <g id="id25">
         <rect class="BoundingBox" stroke="none" fill="none" x="21704" y="5511" width="392" height="1031"/>
         <path fill="rgb(33,29,112)" stroke="none" d="M 22094,6384 C 22050,6398 22016,6405 21995,6405 21975,6405 21963,6401 21960,6395 21954,6383 21951,6361 21952,6329 L 21952,5849 22089,5849 22089,5718 21952,5718 21952,5511 21807,5511 21807,5718 21705,5718 21705,5849 21807,5849 21807,6364 C 21807,6425 21823,6470 21852,6500 21880,6527 21919,6541 21968,6541 21992,6541 22014,6538 22034,6531 22048,6528 22069,6524 22094,6519 L 22094,6384 Z"/>
        </g>
       </g>
       <g class="com.sun.star.drawing.ClosedBezierShape">
        <g id="id26">
         <rect class="BoundingBox" stroke="none" fill="none" x="22122" y="5698" width="740" height="844"/>
         <path fill="rgb(33,29,112)" stroke="none" d="M 22492,6541 C 22605,6541 22696,6502 22761,6422 22827,6348 22860,6248 22860,6121 22860,6001 22830,5902 22771,5824 22709,5743 22614,5700 22492,5699 22369,5700 22276,5743 22214,5822 22153,5902 22123,6001 22123,6120 22125,6258 22160,6362 22231,6433 22300,6505 22386,6541 22492,6541 Z M 22712,6120 C 22712,6196 22694,6264 22659,6322 22626,6376 22570,6403 22492,6403 22420,6403 22367,6378 22332,6328 22292,6276 22273,6207 22273,6120 22273,6043 22290,5976 22326,5918 22359,5865 22413,5838 22492,5835 22571,5837 22627,5862 22659,5913 22694,5966 22712,6037 22712,6120 Z"/>
        </g>
       </g>
       <g class="com.sun.star.drawing.ClosedBezierShape">
        <g id="id27">
         <rect class="BoundingBox" stroke="none" fill="none" x="22963" y="5697" width="388" height="825"/>
         <path fill="rgb(33,29,112)" stroke="none" d="M 23107,6126 C 23106,6045 23122,5977 23152,5923 23182,5874 23248,5851 23350,5851 L 23350,5697 C 23264,5697 23200,5710 23157,5736 23114,5763 23087,5812 23077,5880 L 23080,5884 23107,5716 22964,5716 22964,6520 23107,6520 23107,6126 Z"/>
        </g>
       </g>
      </g>
      <g class="com.sun.star.drawing.CustomShape">
       <g id="id28">
        <rect class="BoundingBox" stroke="none" fill="none" x="9849" y="7400" width="5334" height="151"/>
        <path fill="rgb(250,201,46)" stroke="none" d="M 12516,7550 L 9849,7550 9849,7400 15182,7400 15182,7550 12516,7550 Z"/>
       </g>
      </g>
      <g class="com.sun.star.drawing.CustomShape">
       <g id="id29">
        <rect class="BoundingBox" stroke="none" fill="none" x="15183" y="7400" width="5335" height="151"/>
        <path fill="rgb(118,194,229)" stroke="none" d="M 17850,7550 L 15183,7550 15183,7400 20517,7400 20517,7550 17850,7550 Z"/>
       </g>
      </g>
      <g class="com.sun.star.drawing.CustomShape">
       <g id="id30">
        <rect class="BoundingBox" stroke="none" fill="none" x="20516" y="7400" width="5334" height="151"/>
        <path fill="rgb(237,28,36)" stroke="none" d="M 23183,7550 L 20516,7550 20516,7400 25849,7400 25849,7550 23183,7550 Z"/>
       </g>
      </g>
     </g>
    </g>
   </g>
  </g>
 </g>
</svg>